Comme-DUMMY.ufo
<glyph name="quotedbl" format="1">
  <advance width="565"/>
  <unicode hex="0022"/>
  <outline>
    <contour>
      <point x="158" y="1072" type="line"/>
      <point x="191" y="1072" type="line"/>
      <point x="220" y="1504" type="line"/>
      <point x="123" y="1504" type="line"/>
    </contour>
    <contour>
      <point x="372" y="1072" type="line"/>
      <point x="405" y="1072" type="line"/>
      <point x="435" y="1504" type="line"/>
      <point x="337" y="1504" type="line"/>
    </contour>
  </outline>
</glyph>
<glyph name="numbersign" format="1">
  <advance width="1175"/>
  <unicode hex="0023"/>
  <outline>
    <contour>
      <point x="240" y="-1" type="line"/>
      <point x="309" y="-1" type="line"/>
      <point x="398" y="435" type="line"/>
      <point x="693" y="435" type="line"/>
      <point x="607" y="-1" type="line"/>
      <point x="675" y="-1" type="line"/>
      <point x="764" y="435" type="line"/>
      <point x="954" y="435" type="line"/>
      <point x="966" y="500" type="line"/>
      <point x="777" y="500" type="line"/>
      <point x="871" y="965" type="line"/>
      <point x="1044" y="965" type="line"/>
      <point x="1056" y="1029" type="line"/>
      <point x="885" y="1029" type="line"/>
      <point x="971" y="1459" type="line"/>
      <point x="902" y="1459" type="line"/>
      <point x="815" y="1029" type="line"/>
      <point x="519" y="1029" type="line"/>
      <point x="606" y="1459" type="line"/>
      <point x="537" y="1459" type="line"/>
      <point x="449" y="1029" type="line"/>
      <point x="274" y="1029" type="line"/>
      <point x="266" y="965" type="line"/>
      <point x="435" y="965" type="line"/>
      <point x="342" y="500" type="line"/>
      <point x="184" y="500" type="line"/>
      <point x="175" y="435" type="line"/>
      <point x="329" y="435" type="line"/>
    </contour>
    <contour>
      <point x="412" y="500" type="line"/>
      <point x="506" y="965" type="line"/>
      <point x="801" y="965" type="line"/>
      <point x="707" y="500" type="line"/>
    </contour>
  </outline>
</glyph>
<glyph name="six" format="1">
  <advance width="1200"/>
  <unicode hex="0036"/>
  <outline>
    <contour>
      <point x="627" y="-20" type="curve" smooth="yes"/>
      <point x="910" y="-20"/>
      <point x="1065" y="189"/>
      <point x="1065" y="422" type="curve" smooth="yes"/>
      <point x="1065" y="680"/>
      <point x="858" y="835"/>
      <point x="650" y="835" type="curve" smooth="yes"/>
      <point x="505" y="835"/>
      <point x="370" y="777"/>
      <point x="307" y="694" type="curve"/>
      <point x="314" y="688" type="line"/>
      <point x="472" y="928" type="line"/>
      <point x="815" y="1439" type="line"/>
      <point x="815" y="1456" type="line"/>
      <point x="725" y="1456" type="line"/>
      <point x="430" y="1015" type="line" smooth="yes"/>
      <point x="280" y="790"/>
      <point x="193" y="657"/>
      <point x="193" y="425" type="curve" smooth="yes"/>
      <point x="193" y="216"/>
      <point x="325" y="-20"/>
    </contour>
    <contour>
      <point x="626" y="56" type="curve" smooth="yes"/>
      <point x="391" y="56"/>
      <point x="276" y="231"/>
      <point x="276" y="414" type="curve" smooth="yes"/>
      <point x="276" y="712"/>
      <point x="533" y="764"/>
      <point x="634" y="764" type="curve" smooth="yes"/>
      <point x="849" y="764"/>
      <point x="981" y="616"/>
      <point x="981" y="423" type="curve" smooth="yes"/>
      <point x="981" y="236"/>
      <point x="857" y="56"/>
    </contour>
  </outline>
</glyph>
<glyph name="eight" format="1">
  <advance width="1200"/>
  <unicode hex="0038"/>
  <outline>
    <contour>
      <point x="599" y="-20" type="curve" smooth="yes"/>
      <point x="856" y="-20"/>
      <point x="1051" y="98"/>
      <point x="1051" y="347" type="curve" smooth="yes"/>
      <point x="1051" y="543"/>
      <point x="920" y="703"/>
      <point x="700" y="755" type="curve"/>
      <point x="892" y="809"/>
      <point x="1015" y="931"/>
      <point x="1015" y="1123" type="curve" smooth="yes"/>
      <point x="1015" y="1338"/>
      <point x="859" y="1476"/>
      <point x="601" y="1476" type="curve" smooth="yes"/>
      <point x="340" y="1476"/>
      <point x="182" y="1338"/>
      <point x="182" y="1123" type="curve" smooth="yes"/>
      <point x="182" y="934"/>
      <point x="317" y="796"/>
      <point x="497" y="752" type="curve"/>
      <point x="268" y="686"/>
      <point x="149" y="566"/>
      <point x="149" y="346" type="curve" smooth="yes"/>
      <point x="149" y="97"/>
      <point x="347" y="-20"/>
    </contour>
    <contour>
      <point x="599" y="56" type="curve" smooth="yes"/>
      <point x="354" y="56"/>
      <point x="227" y="159"/>
      <point x="227" y="359" type="curve" smooth="yes"/>
      <point x="227" y="558"/>
      <point x="390" y="665"/>
      <point x="599" y="706" type="curve"/>
      <point x="811" y="665"/>
      <point x="968" y="547"/>
      <point x="968" y="359" type="curve" smooth="yes"/>
      <point x="968" y="147"/>
      <point x="854" y="56"/>
    </contour>
    <contour>
      <point x="599" y="792" type="curve"/>
      <point x="385" y="838"/>
      <point x="278" y="957"/>
      <point x="278" y="1130" type="curve" smooth="yes"/>
      <point x="278" y="1296"/>
      <point x="406" y="1397"/>
      <point x="599" y="1397" type="curve" smooth="yes"/>
      <point x="795" y="1397"/>
      <point x="918" y="1296"/>
      <point x="918" y="1130" type="curve" smooth="yes"/>
      <point x="918" y="957"/>
      <point x="817" y="838"/>
    </contour>
  </outline>
</glyph>
<glyph name="colon" format="1">
  <advance width="478"/>
  <unicode hex="003A"/>
  <outline>
    <contour>
      <point x="226" y="896" type="curve" smooth="yes"/>
      <point x="291" y="896"/>
      <point x="304" y="940"/>
      <point x="304" y="975" type="curve" smooth="yes"/>
      <point x="304" y="1008"/>
      <point x="291" y="1053"/>
      <point x="226" y="1053" type="curve" smooth="yes"/>
      <point x="158" y="1053"/>
      <point x="146" y="1008"/>
      <point x="146" y="975" type="curve" smooth="yes"/>
      <point x="146" y="941"/>
      <point x="160" y="896"/>
    </contour>
    <contour>
      <point x="226" y="-20" type="curve" smooth="yes"/>
      <point x="291" y="-20"/>
      <point x="304" y="25"/>
      <point x="304" y="59" type="curve" smooth="yes"/>
      <point x="304" y="93"/>
      <point x="291" y="138"/>
      <point x="226" y="138" type="curve" smooth="yes"/>
      <point x="158" y="138"/>
      <point x="146" y="93"/>
      <point x="146" y="59" type="curve" smooth="yes"/>
      <point x="146" y="26"/>
      <point x="160" y="-20"/>
    </contour>
  </outline>
</glyph>
<glyph name="equal" format="1">
  <advance width="1060"/>
  <unicode hex="003D"/>
  <outline>
    <contour>
      <point x="132" y="939" type="line"/>
      <point x="132" y="867" type="line"/>
      <point x="929" y="867" type="line"/>
      <point x="929" y="939" type="line"/>
    </contour>
    <contour>
      <point x="132" y="556" type="line"/>
      <point x="132" y="484" type="line"/>
      <point x="929" y="484" type="line"/>
      <point x="929" y="556" type="line"/>
    </contour>
  </outline>
</glyph>
<glyph name="D" format="1">
  <advance width="1525"/>
  <unicode hex="0044"/>
  <outline>
    <contour>
      <point x="271" y="753" type="move" name="mid"/>
    </contour>
    <contour>
      <point x="765" y="0" type="move" name="bot"/>
    </contour>
    <contour>
      <point x="762" y="1455" type="move" name="top"/>
    </contour>
    <contour>
      <point x="222" y="0" type="line"/>
      <point x="1131" y="-61"/>
      <point x="1378" y="161"/>
      <point x="1378" y="729" type="curve" smooth="yes"/>
      <point x="1378" y="1313"/>
      <point x="1134" y="1527"/>
      <point x="222" y="1455" type="curve"/>
    </contour>
    <contour>
      <point x="267" y="1385" type="line"/>
      <point x="1066" y="1436"/>
      <point x="1285" y="1267"/>
      <point x="1285" y="724" type="curve" smooth="yes"/>
      <point x="1285" y="214"/>
      <point x="1067" y="5"/>
      <point x="267" y="69" type="curve"/>
      <point x="314" y="24" type="line"/>
      <point x="314" y="1431" type="line"/>
    </contour>
  </outline>
</glyph>
<glyph name="R" format="1">
  <advance width="1399"/>
  <unicode hex="0052"/>
  <outline>
    <contour>
      <point x="703" y="0" type="move" name="bot"/>
    </contour>
    <contour>
      <point x="698" y="1456" type="move" name="top"/>
    </contour>
    <contour>
      <point x="222" y="0" type="line"/>
      <point x="314" y="0" type="line"/>
      <point x="314" y="778" type="line"/>
      <point x="287" y="755" type="line"/>
      <point x="885" y="755" type="line"/>
      <point x="831" y="801" type="line"/>
      <point x="1184" y="0" type="line"/>
      <point x="1271" y="0" type="line"/>
      <point x="1271" y="13" type="line"/>
      <point x="923" y="817" type="line"/>
      <point x="901" y="756" type="line"/>
      <point x="1110" y="784"/>
      <point x="1216" y="872"/>
      <point x="1216" y="1110" type="curve" smooth="yes"/>
      <point x="1215" y="1417"/>
      <point x="1096" y="1503"/>
      <point x="222" y="1454" type="curve"/>
    </contour>
    <contour>
      <point x="314" y="800" type="line"/>
      <point x="314" y="1411" type="line"/>
      <point x="285" y="1386" type="line"/>
      <point x="1020" y="1435"/>
      <point x="1129" y="1361"/>
      <point x="1130" y="1108" type="curve" smooth="yes"/>
      <point x="1130" y="897"/>
      <point x="1071" y="823"/>
      <point x="771" y="823" type="curve" smooth="yes"/>
      <point x="290" y="823" type="line"/>
    </contour>
  </outline>
</glyph>
<glyph name="a" format="1">
  <advance width="1116"/>
  <unicode hex="0061"/>
  <outline>
    <contour>
      <point x="545" y="0" type="move" name="bot"/>
    </contour>
    <contour>
      <point x="899" y="0" type="move" name="ogonek"/>
    </contour>
    <contour>
      <point x="542" y="1082" type="move" name="top"/>
    </contour>
    <contour>
      <point x="445" y="-14" type="curve" smooth="yes"/>
      <point x="576" y="-14"/>
      <point x="739" y="10"/>
      <point x="881" y="223" type="curve"/>
      <point x="847" y="216" type="line"/>
      <point x="866" y="1" type="line"/>
      <point x="936" y="1" type="line"/>
      <point x="936" y="733" type="line" smooth="yes"/>
      <point x="936" y="1012"/>
      <point x="779" y="1102"/>
      <point x="542" y="1102" type="curve" smooth="yes"/>
      <point x="420" y="1102"/>
      <point x="258" y="1060"/>
      <point x="181" y="1015" type="curve"/>
      <point x="218" y="944" type="line"/>
      <point x="311" y="1000"/>
      <point x="436" y="1030"/>
      <point x="547" y="1030" type="curve" smooth="yes"/>
      <point x="740" y="1030"/>
      <point x="840" y="932"/>
      <point x="840" y="752" type="curve" smooth="yes"/>
      <point x="840" y="572" type="line"/>
      <point x="871" y="606" type="line"/>
      <point x="640" y="610" type="line" smooth="yes"/>
      <point x="262" y="614"/>
      <point x="118" y="498"/>
      <point x="118" y="276" type="curve" smooth="yes"/>
      <point x="118" y="95"/>
      <point x="251" y="-14"/>
    </contour>
    <contour>
      <point x="450" y="59" type="curve" smooth="yes"/>
      <point x="325" y="59"/>
      <point x="217" y="127"/>
      <point x="217" y="277" type="curve" smooth="yes"/>
      <point x="217" y="451"/>
      <point x="281" y="546"/>
      <point x="649" y="543" type="curve" smooth="yes"/>
      <point x="859" y="541" type="line"/>
      <point x="840" y="555" type="line"/>
      <point x="840" y="233" type="line"/>
      <point x="853" y="280" type="line"/>
      <point x="724" y="94"/>
      <point x="591" y="59"/>
    </contour>
  </outline>
</glyph>
<glyph name="currency" format="1">
  <advance width="1446"/>
  <unicode hex="00A4"/>
  <outline>
    <contour>
      <point x="985" y="1007" type="line"/>
      <point x="911" y="1073"/>
      <point x="814" y="1110"/>
      <point x="708" y="1110" type="curve" smooth="yes"/>
      <point x="603" y="1110"/>
      <point x="507" y="1077"/>
      <point x="430" y="1008" type="curve"/>
      <point x="245" y="1182" type="line"/>
      <point x="206" y="1145" type="line"/>
      <point x="394" y="966" type="line"/>
      <point x="333" y="893"/>
      <point x="304" y="801"/>
      <point x="304" y="705" type="curve" smooth="yes"/>
      <point x="304" y="609"/>
      <point x="332" y="523"/>
      <point x="394" y="447" type="curve"/>
      <point x="207" y="270" type="line"/>
      <point x="245" y="229" type="line"/>
      <point x="432" y="405" type="line"/>
      <point x="507" y="338"/>
      <point x="602" y="304"/>
      <point x="708" y="304" type="curve" smooth="yes"/>
      <point x="816" y="304"/>
      <point x="909" y="337"/>
      <point x="985" y="403" type="curve"/>
      <point x="1171" y="228" type="line"/>
      <point x="1205" y="268" type="line"/>
      <point x="1023" y="447" type="line"/>
      <point x="1082" y="518"/>
      <point x="1111" y="606"/>
      <point x="1111" y="705" type="curve" smooth="yes"/>
      <point x="1111" y="796"/>
      <point x="1084" y="885"/>
      <point x="1022" y="966" type="curve"/>
      <point x="1206" y="1141" type="line"/>
      <point x="1171" y="1182" type="line"/>
    </contour>
    <contour>
      <point x="1051" y="705" type="curve" smooth="yes"/>
      <point x="1051" y="517"/>
      <point x="931" y="350"/>
      <point x="708" y="350" type="curve" smooth="yes"/>
      <point x="488" y="350"/>
      <point x="365" y="516"/>
      <point x="365" y="705" type="curve" smooth="yes"/>
      <point x="365" y="896"/>
      <point x="488" y="1062"/>
      <point x="708" y="1062" type="curve" smooth="yes"/>
      <point x="930" y="1062"/>
      <point x="1051" y="894"/>
    </contour>
  </outline>
</glyph>
<glyph name="dieresis" format="1">
  <advance width="794"/>
  <unicode hex="00A8"/>
  <outline>
    <contour>
      <point x="397" y="1082" type="move" name="_top"/>
    </contour>
    <contour>
      <point x="202" y="1350" type="curve" smooth="yes"/>
      <point x="255" y="1350"/>
      <point x="265" y="1386"/>
      <point x="265" y="1414" type="curve" smooth="yes"/>
      <point x="265" y="1440"/>
      <point x="255" y="1477"/>
      <point x="202" y="1477" type="curve" smooth="yes"/>
      <point x="146" y="1477"/>
      <point x="138" y="1440"/>
      <point x="138" y="1414" type="curve" smooth="yes"/>
      <point x="138" y="1386"/>
      <point x="149" y="1350"/>
    </contour>
    <contour>
      <point x="566" y="1350" type="curve" smooth="yes"/>
      <point x="618" y="1350"/>
      <point x="629" y="1385"/>
      <point x="629" y="1414" type="curve" smooth="yes"/>
      <point x="629" y="1440"/>
      <point x="618" y="1477"/>
      <point x="566" y="1477" type="curve" smooth="yes"/>
      <point x="510" y="1477"/>
      <point x="502" y="1440"/>
      <point x="502" y="1414" type="curve" smooth="yes"/>
      <point x="502" y="1386"/>
      <point x="512" y="1350"/>
    </contour>
  </outline>
</glyph>
<glyph name="guillemotleft" format="1">
  <advance width="1010"/>
  <unicode hex="00AB"/>
  <outline>
    <contour>
      <point x="410" y="163" type="line"/>
      <point x="470" y="175" type="line"/>
      <point x="212" y="540" type="line"/>
      <point x="478" y="899" type="line"/>
      <point x="414" y="912" type="line"/>
      <point x="140" y="537" type="line"/>
    </contour>
    <contour>
      <point x="725" y="163" type="line"/>
      <point x="785" y="175" type="line"/>
      <point x="526" y="540" type="line"/>
      <point x="792" y="899" type="line"/>
      <point x="728" y="912" type="line"/>
      <point x="455" y="537" type="line"/>
    </contour>
  </outline>
</glyph>
<glyph name="logicalnot" format="1">
  <advance width="1222"/>
  <unicode hex="00AC"/>
  <outline>
    <contour>
      <point x="111" y="779" type="line"/>
      <point x="111" y="706" type="line"/>
      <point x="992" y="706" type="line"/>
      <point x="992" y="263" type="line"/>
      <point x="1061" y="263" type="line"/>
      <point x="1061" y="779" type="line"/>
    </contour>
  </outline>
</glyph>
<glyph name="plusminus" format="1">
  <advance width="1169"/>
  <unicode hex="00B1"/>
  <outline>
    <contour>
      <point x="533" y="1044" type="line"/>
      <point x="533" y="640" type="line"/>
      <point x="148" y="640" type="line"/>
      <point x="148" y="589" type="line"/>
      <point x="533" y="589" type="line"/>
      <point x="533" y="175" type="line"/>
      <point x="606" y="175" type="line"/>
      <point x="606" y="589" type="line"/>
      <point x="981" y="589" type="line"/>
      <point x="981" y="640" type="line"/>
      <point x="606" y="640" type="line"/>
      <point x="606" y="1044" type="line"/>
    </contour>
    <contour>
      <point x="112" y="66" type="line"/>
      <point x="112" y="0" type="line"/>
      <point x="1056" y="0" type="line"/>
      <point x="1056" y="66" type="line"/>
    </contour>
  </outline>
</glyph>
<glyph name="ordmasculine" format="1">
  <advance width="853"/>
  <unicode hex="00BA"/>
  <outline>
    <contour>
      <point x="94" y="1172" type="curve" smooth="yes"/>
      <point x="94" y="960"/>
      <point x="218" y="802"/>
      <point x="426" y="802" type="curve" smooth="yes"/>
      <point x="623" y="802"/>
      <point x="759" y="963"/>
      <point x="759" y="1172" type="curve" smooth="yes"/>
      <point x="759" y="1391"/>
      <point x="641" y="1547"/>
      <point x="426" y="1547" type="curve" smooth="yes"/>
      <point x="218" y="1547"/>
      <point x="94" y="1388"/>
    </contour>
    <contour>
      <point x="665" y="1170" type="curve" smooth="yes"/>
      <point x="665" y="1011"/>
      <point x="588" y="873"/>
      <point x="426" y="873" type="curve" smooth="yes"/>
      <point x="273" y="873"/>
      <point x="196" y="1013"/>
      <point x="196" y="1173" type="curve" smooth="yes"/>
      <point x="196" y="1336"/>
      <point x="274" y="1475"/>
      <point x="426" y="1475" type="curve" smooth="yes"/>
      <point x="584" y="1475"/>
      <point x="665" y="1334"/>
    </contour>
  </outline>
</glyph>
<glyph name="guillemotright" format="1">
  <advance width="966"/>
  <unicode hex="00BB"/>
  <outline>
    <contour>
      <point x="233" y="163" type="line"/>
      <point x="506" y="537" type="line"/>
      <point x="236" y="912" type="line"/>
      <point x="176" y="900" type="line"/>
      <point x="435" y="534" type="line"/>
      <point x="168" y="176" type="line"/>
    </contour>
    <contour>
      <point x="548" y="163" type="line"/>
      <point x="821" y="537" type="line"/>
      <point x="551" y="912" type="line"/>
      <point x="491" y="900" type="line"/>
      <point x="750" y="534" type="line"/>
      <point x="484" y="176" type="line"/>
    </contour>
  </outline>
</glyph>
<glyph name="Oslash" format="1">
  <advance width="1678"/>
  <unicode hex="00D8"/>
  <outline>
    <contour>
      <point x="827" y="1456" type="move" name="top"/>
    </contour>
    <contour>
      <point x="479" y="-218" type="line"/>
      <point x="573" y="17" type="line"/>
      <point x="647" y="-6"/>
      <point x="731" y="-19"/>
      <point x="826" y="-19" type="curve" smooth="yes"/>
      <point x="1286" y="-19"/>
      <point x="1497" y="292"/>
      <point x="1497" y="710" type="curve" smooth="yes"/>
      <point x="1497" y="1040"/>
      <point x="1372" y="1299"/>
      <point x="1130" y="1413" type="curve"/>
      <point x="1226" y="1649" type="line"/>
      <point x="1167" y="1669" type="line"/>
      <point x="1073" y="1435" type="line"/>
      <point x="1000" y="1460"/>
      <point x="919" y="1474"/>
      <point x="827" y="1474" type="curve" smooth="yes"/>
      <point x="370" y="1474"/>
      <point x="148" y="1163"/>
      <point x="148" y="714" type="curve" smooth="yes"/>
      <point x="148" y="393"/>
      <point x="264" y="143"/>
      <point x="517" y="37" type="curve"/>
      <point x="424" y="-197" type="line"/>
    </contour>
    <contour>
      <point x="545" y="103" type="line"/>
      <point x="329" y="202"/>
      <point x="241" y="428"/>
      <point x="241" y="714" type="curve" smooth="yes"/>
      <point x="241" y="1124"/>
      <point x="418" y="1405"/>
      <point x="826" y="1405" type="curve" smooth="yes"/>
      <point x="909" y="1405"/>
      <point x="983" y="1393"/>
      <point x="1047" y="1371" type="curve"/>
    </contour>
    <contour>
      <point x="823" y="50" type="curve" smooth="yes"/>
      <point x="739" y="50"/>
      <point x="665" y="61"/>
      <point x="600" y="82" type="curve"/>
      <point x="1103" y="1349" type="line"/>
      <point x="1313" y="1246"/>
      <point x="1404" y="1013"/>
      <point x="1404" y="714" type="curve" smooth="yes"/>
      <point x="1404" y="328"/>
      <point x="1246" y="50"/>
    </contour>
  </outline>
</glyph>
<glyph name="thorn" format="1">
  <advance width="1247"/>
  <unicode hex="00FE"/>
  <outline>
    <component base="b" xOffset="-5"/>
    <contour>
      <point x="182" y="291" type="line"/>
      <point x="182" y="-512" type="line"/>
      <point x="278" y="-512" type="line"/>
      <point x="278" y="291" type="line"/>
    </contour>
  </outline>
</glyph>
<glyph name="commaaccent" format="1">
  <advance width="601"/>
  <unicode hex="0326"/>
  <outline>
    <contour>
      <point x="314" y="0" type="move" name="_bot"/>
    </contour>
    <contour>
      <point x="251" y="-497" type="curve"/>
      <point x="291" y="-497" type="line"/>
      <point x="291" y="-497"/>
      <point x="355" y="-239"/>
      <point x="352" y="-163" type="curve"/>
      <point x="266" y="-163" type="line"/>
      <point x="266" y="-287"/>
      <point x="251" y="-497"/>
    </contour>
  </outline>
</glyph>
<glyph name="daggerdbl" format="1">
  <advance width="1055"/>
  <unicode hex="2021"/>
  <outline>
    <contour>
      <point x="434" y="1455" type="line"/>
      <point x="434" y="1049" type="line"/>
      <point x="145" y="1049" type="line"/>
      <point x="145" y="1012" type="line"/>
      <point x="434" y="1012" type="line"/>
      <point x="434" y="545" type="line"/>
      <point x="145" y="545" type="line"/>
      <point x="145" y="507" type="line"/>
      <point x="434" y="507" type="line"/>
      <point x="434" y="150" type="line"/>
      <point x="486" y="150" type="line"/>
      <point x="486" y="507" type="line"/>
      <point x="769" y="507" type="line"/>
      <point x="769" y="545" type="line"/>
      <point x="486" y="545" type="line"/>
      <point x="486" y="1012" type="line"/>
      <point x="769" y="1012" type="line"/>
      <point x="769" y="1049" type="line"/>
      <point x="479" y="1049" type="line"/>
      <point x="479" y="1455" type="line"/>
    </contour>
  </outline>
</glyph>
<glyph name="guilsinglleft" format="1">
  <advance width="659"/>
  <unicode hex="2039"/>
  <outline>
    <contour>
      <point x="446" y="138" type="line"/>
      <point x="526" y="138" type="line"/>
      <point x="215" y="566" type="line"/>
      <point x="530" y="1006" type="line"/>
      <point x="449" y="1006" type="line"/>
      <point x="129" y="567" type="line"/>
    </contour>
  </outline>
</glyph>
<glyph name="guilsinglright" format="1">
  <advance width="683"/>
  <unicode hex="203A"/>
  <outline>
    <contour>
      <point x="162" y="138" type="line"/>
      <point x="243" y="138" type="line"/>
      <point x="564" y="580" type="line"/>
      <point x="246" y="1007" type="line"/>
      <point x="166" y="1007" type="line"/>
      <point x="476" y="581" type="line"/>
    </contour>
  </outline>
</glyph>
<glyph name="greaterequal" format="1">
  <advance width="1245"/>
  <unicode hex="2265"/>
  <outline>
    <contour>
      <point x="174" y="248" type="line"/>
      <point x="1056" y="734" type="line"/>
      <point x="1056" y="782" type="line"/>
      <point x="180" y="1306" type="line"/>
      <point x="180" y="1220" type="line"/>
      <point x="1016" y="758" type="line"/>
      <point x="174" y="330" type="line"/>
    </contour>
    <contour>
      <point x="127" y="13" type="line"/>
      <point x="1085" y="13" type="line"/>
      <point x="1085" y="107" type="line"/>
      <point x="127" y="104" type="line"/>
    </contour>
  </outline>
</glyph>
